<svg xmlns="http://www.w3.org/2000/svg" viewBox="0 0 760 180" role="img" aria-labelledby="title desc">
  <title id="title">Reweave logo</title>
  <desc id="desc">Reweave wordmark with a monochrome capsule ring and a single thread.</desc>
  <style>
    :root { color: #111111; }
    @media (prefers-color-scheme: dark) { :root { color: #f5f2ed; } }
  </style>
  <rect width="760" height="180" fill="none"/>
  <g transform="translate(31 22) scale(.5)">
    <g fill="none" stroke="currentColor" stroke-width="10" stroke-linecap="round" stroke-linejoin="round">
      <path d="M68 88c15-24 38-38 65-41"/>
      <path d="M170 51c24 10 41 32 48 59"/>
      <path d="M204 168c-14 13-33 20-56 21"/>
      <path d="M102 186c-24-10-41-31-48-58"/>
    </g>
    <g fill="none" stroke="currentColor" stroke-width="6.4" stroke-linecap="round" stroke-linejoin="round">
      <path d="M141 66c-24 30-23 64 7 91"/>
      <path d="M95 128c28-15 52-12 73 11"/>
    </g>
    <g fill="none" stroke="currentColor" stroke-width="5.2" stroke-linecap="round" stroke-linejoin="round">
      <path d="M126 179c-4 9-5 16-10 25"/>
    </g>
    <g fill="currentColor">
      <rect x="109" y="39" width="54" height="22" rx="11"/>
      <rect x="45" y="116" width="48" height="22" rx="11" transform="rotate(74 69 127)"/>
      <rect x="181" y="144" width="42" height="19" rx="9.5"/>
      <circle cx="115" cy="208" r="4.8"/>
    </g>
  </g>
  <g fill="currentColor" font-family="Inter, ui-sans-serif, system-ui, -apple-system, BlinkMacSystemFont, 'Segoe UI', sans-serif">
    <text x="168" y="82" font-size="48" font-weight="740" letter-spacing="0">Reweave</text>
    <text x="171" y="117" font-size="21" font-weight="500" letter-spacing="0">Old projects into reusable capsules</text>
  </g>
</svg>
